<mxfile host="www.draw.io" modified="2020-02-04T11:44:45.242Z" agent="Mozilla/5.0 (Macintosh; Intel Mac OS X 10_15_3) AppleWebKit/537.36 (KHTML, like Gecko) Chrome/79.0.3945.130 Safari/537.36" etag="2cigtzPHF4CkZK6CDOlI" version="12.6.5" type="github">
  <diagram id="t0lgoztnIuoL1zLsykei" name="第 1 页">
    <mxGraphModel dx="833" dy="582" grid="1" gridSize="10" guides="1" tooltips="1" connect="1" arrows="1" fold="1" page="1" pageScale="1" pageWidth="827" pageHeight="1169" math="0" shadow="0">
      <root>
        <mxCell id="0"/>
        <mxCell id="1" parent="0"/>
        <mxCell id="jRjIIvMWt9d5DCrv9Mx3-1" value="点击搜索" style="rounded=1;whiteSpace=wrap;html=1;" vertex="1" parent="1">
          <mxGeometry x="340" y="50" width="90" height="40" as="geometry"/>
        </mxCell>
        <mxCell id="jRjIIvMWt9d5DCrv9Mx3-7" value="" style="edgeStyle=orthogonalEdgeStyle;rounded=0;orthogonalLoop=1;jettySize=auto;html=1;" edge="1" parent="1">
          <mxGeometry relative="1" as="geometry">
            <mxPoint x="385" y="90" as="sourcePoint"/>
            <mxPoint x="385" y="150" as="targetPoint"/>
          </mxGeometry>
        </mxCell>
        <mxCell id="jRjIIvMWt9d5DCrv9Mx3-10" value="" style="edgeStyle=orthogonalEdgeStyle;rounded=0;orthogonalLoop=1;jettySize=auto;html=1;" edge="1" parent="1" source="jRjIIvMWt9d5DCrv9Mx3-8">
          <mxGeometry relative="1" as="geometry">
            <mxPoint x="527.5" y="190" as="targetPoint"/>
          </mxGeometry>
        </mxCell>
        <mxCell id="jRjIIvMWt9d5DCrv9Mx3-14" value="" style="edgeStyle=orthogonalEdgeStyle;rounded=0;orthogonalLoop=1;jettySize=auto;html=1;" edge="1" parent="1" source="jRjIIvMWt9d5DCrv9Mx3-8">
          <mxGeometry relative="1" as="geometry">
            <mxPoint x="242.5" y="190" as="targetPoint"/>
          </mxGeometry>
        </mxCell>
        <mxCell id="jRjIIvMWt9d5DCrv9Mx3-8" value="用户版本&lt;br&gt;是否为初级" style="rhombus;whiteSpace=wrap;html=1;" vertex="1" parent="1">
          <mxGeometry x="322.5" y="150" width="125" height="80" as="geometry"/>
        </mxCell>
        <mxCell id="jRjIIvMWt9d5DCrv9Mx3-11" value="是" style="text;html=1;align=center;verticalAlign=middle;resizable=0;points=[];autosize=1;" vertex="1" parent="1">
          <mxGeometry x="467" y="160" width="30" height="20" as="geometry"/>
        </mxCell>
        <mxCell id="jRjIIvMWt9d5DCrv9Mx3-20" value="" style="edgeStyle=orthogonalEdgeStyle;rounded=0;orthogonalLoop=1;jettySize=auto;html=1;" edge="1" parent="1" source="jRjIIvMWt9d5DCrv9Mx3-12">
          <mxGeometry relative="1" as="geometry">
            <mxPoint x="450" y="310" as="targetPoint"/>
            <Array as="points">
              <mxPoint x="580" y="310"/>
            </Array>
          </mxGeometry>
        </mxCell>
        <mxCell id="jRjIIvMWt9d5DCrv9Mx3-12" value="同步订单到后台" style="rounded=1;whiteSpace=wrap;html=1;" vertex="1" parent="1">
          <mxGeometry x="530" y="165" width="100" height="50" as="geometry"/>
        </mxCell>
        <mxCell id="jRjIIvMWt9d5DCrv9Mx3-15" value="否" style="text;html=1;align=center;verticalAlign=middle;resizable=0;points=[];autosize=1;" vertex="1" parent="1">
          <mxGeometry x="280" y="165" width="30" height="20" as="geometry"/>
        </mxCell>
        <mxCell id="jRjIIvMWt9d5DCrv9Mx3-18" value="" style="edgeStyle=orthogonalEdgeStyle;rounded=0;orthogonalLoop=1;jettySize=auto;html=1;" edge="1" parent="1" source="jRjIIvMWt9d5DCrv9Mx3-16">
          <mxGeometry relative="1" as="geometry">
            <mxPoint x="320" y="310" as="targetPoint"/>
            <Array as="points">
              <mxPoint x="190" y="250"/>
              <mxPoint x="190" y="250"/>
            </Array>
          </mxGeometry>
        </mxCell>
        <mxCell id="jRjIIvMWt9d5DCrv9Mx3-16" value="后台同步订单" style="rounded=1;whiteSpace=wrap;html=1;" vertex="1" parent="1">
          <mxGeometry x="140" y="165" width="100" height="50" as="geometry"/>
        </mxCell>
        <mxCell id="jRjIIvMWt9d5DCrv9Mx3-22" value="开始高级搜索" style="rounded=1;whiteSpace=wrap;html=1;" vertex="1" parent="1">
          <mxGeometry x="322.5" y="280" width="120" height="60" as="geometry"/>
        </mxCell>
      </root>
    </mxGraphModel>
  </diagram>
</mxfile>
